<?xml version="1.0" standalone="no"?>
<!DOCTYPE svg PUBLIC "-//W3C//DTD SVG 20010904//EN"
 "http://www.w3.org/TR/2001/REC-SVG-20010904/DTD/svg10.dtd">
<svg version="1.0" xmlns="http://www.w3.org/2000/svg"
 width="260.000000pt" height="260.000000pt" viewBox="0 0 260.000000 260.000000"
 preserveAspectRatio="xMidYMid meet">
<metadata>
Created by potrace 1.14, written by Peter Selinger 2001-2017
</metadata>
<g transform="translate(0.000000,260.000000) scale(0.100000,-0.100000)"
fill="#000000" stroke="none">
<path d="M2303 2397 c-191 -122 -408 -294 -584 -465 l-97 -93 -48 30 c-98 61
-115 62 -726 59 l-553 -3 -60 -24 c-82 -33 -173 -124 -206 -206 l-24 -60 0
-620 0 -620 24 -60 c33 -82 124 -173 206 -206 l60 -24 580 0 580 0 60 24 c82
33 173 124 206 206 l24 60 2 630 3 629 108 131 c190 227 370 411 527 541 33
27 62 51 65 54 2 3 -7 22 -21 42 l-26 38 -100 -63z m-879 -728 c24 -11 24 -12
-68 -118 -129 -150 -207 -252 -331 -435 l-108 -158 -61 124 c-71 144 -141 247
-190 277 -47 30 -108 27 -181 -7 -57 -27 -185 -124 -185 -140 0 -4 15 -14 33
-21 86 -39 184 -166 275 -361 41 -87 142 -332 166 -404 6 -17 8 -17 39 8 17
14 88 63 156 108 l123 83 59 116 c72 144 135 253 253 434 l91 139 3 -432 c2
-478 3 -473 -61 -512 -31 -19 -54 -20 -560 -20 -583 0 -568 -2 -607 63 -19 31
-20 54 -20 600 0 627 -2 608 63 647 31 19 54 20 559 20 367 0 535 -3 552 -11z"/>
</g>
</svg>
